<svg aria-hidden="true" style="position: absolute; width: 0; height: 0; overflow: hidden;" version="1.1" xmlns="http://www.w3.org/2000/svg" xmlns:xlink="http://www.w3.org/1999/xlink">
<defs>
<symbol id="icon-share" viewBox="0 0 32 32">
<path d="M23.694 21.946c-0.992 0-1.916 0.288-2.695 0.784l-7.862-5.489c0.126-0.441 0.195-0.905 0.195-1.386s-0.069-0.946-0.195-1.386l7.65-5.341c0.821 0.583 1.823 0.927 2.907 0.927 2.776 0 5.027-2.251 5.027-5.027s-2.251-5.027-5.027-5.027c-2.776 0-5.027 2.251-5.027 5.027 0 0.367 0.040 0.724 0.115 1.068l-7.844 5.477c-0.766-0.472-1.667-0.744-2.632-0.744-2.776 0-5.027 2.251-5.027 5.027s2.251 5.027 5.027 5.027c0.965 0 1.867-0.273 2.632-0.744l7.905 5.519c-0.114 0.42-0.175 0.861-0.175 1.317 0 2.776 2.251 5.027 5.027 5.027s5.027-2.251 5.027-5.027c0-2.776-2.251-5.027-5.027-5.027z"></path>
</symbol>
<symbol id="icon-share-light" viewBox="0 0 32 32">
<path fill="#f4f4f4" style="fill: var(--color2, #f4f4f4)" d="M23.694 21.946c-0.992 0-1.916 0.288-2.695 0.784l-7.862-5.489c0.126-0.441 0.195-0.905 0.195-1.386s-0.069-0.946-0.195-1.386l7.65-5.341c0.821 0.583 1.823 0.927 2.907 0.927 2.776 0 5.027-2.251 5.027-5.027s-2.251-5.027-5.027-5.027c-2.776 0-5.027 2.251-5.027 5.027 0 0.367 0.040 0.724 0.115 1.068l-7.844 5.477c-0.766-0.472-1.667-0.744-2.632-0.744-2.776 0-5.027 2.251-5.027 5.027s2.251 5.027 5.027 5.027c0.965 0 1.867-0.273 2.632-0.744l7.905 5.519c-0.114 0.42-0.175 0.861-0.175 1.317 0 2.776 2.251 5.027 5.027 5.027s5.027-2.251 5.027-5.027c0-2.776-2.251-5.027-5.027-5.027z"></path>
</symbol>
</defs>
</svg>
