<svg xmlns="http://www.w3.org/2000/svg" aria-hidden="true" style="position:absolute;width:0;height:0;overflow:hidden">
  <defs>
    <symbol id="icon-arrow" viewBox="0 0 32 32">
      <path stroke="#242424" stroke-linecap="round" stroke-linejoin="round" stroke-width="2.6" d="m15 28 13-13m0 0L15 2m13 13H2"/>
    </symbol>
    <symbol id="icon-man" viewBox="0 0 32 32">
      <path fill="#242424" d="M32 16c0 8.837-7.163 16-16 16S0 24.837 0 16 7.163 0 16 0s16 7.163 16 16z" style="fill:var(--color1, #242424)"/>
      <path fill="#f4f4f4" d="M25.098 11.634a.79.79 0 0 0-1.111-.099l-2.188 1.838-1.006-2.493a.757.757 0 0 0-.153-.241 2.148 2.148 0 0 0-1.055-1.078 2.158 2.158 0 0 0-.655-.174c-.049-.025-.093-.059-.148-.076l-3.85-1.073a.792.792 0 0 0-.611.083.77.77 0 0 0-.479.448l-1.45 3.728a.791.791 0 0 0 .451 1.022.79.79 0 0 0 1.021-.452l1.225-3.148 1.754.488c-.043.069-.089.134-.124.208l-2.248 4.873c-.032.072-.05.144-.073.218l-2.732 4.58-4.572 1.529a1.168 1.168 0 0 0 1.387 1.879l4.679-1.612c.143-.104.247-.24.326-.387.059-.062.126-.112.171-.189l1.629-2.731 2.891 2.464-3.094 3.487a1.167 1.167 0 0 0 1.747 1.547l3.861-4.349c.12-.134.192-.289.24-.451.029-.088.029-.179.036-.27 0-.046.017-.088.014-.131a1.143 1.143 0 0 0-.401-.849l-2.661-2.269c.192-.183.355-.4.473-.655l1.724-3.733.552 1.471a.742.742 0 0 0 .159.366.754.754 0 0 0 .303.211c.012.006.025.007.039.01a.738.738 0 0 0 .489.024l.003-.001c.024-.006.049-.001.073-.012a.79.79 0 0 0 .311-.226l3.14-2.665c.334-.281.193-.777-.088-1.111zM21.126 9.735a2.201 2.201 0 1 0 0-4.402 2.201 2.201 0 0 0 0 4.402z" style="fill:var(--color2, #f4f4f4)"/>
    </symbol>
    <symbol id="icon-trash" viewBox="0 0 32 32">
      <path fill="#FFFFFF" stroke="#242424" stroke-linecap="round" stroke-linejoin="round" stroke-width="2.6" d="M21.333 8V6.933c0-1.493 0-2.24-.291-2.811a2.666 2.666 0 0 0-1.165-1.165c-.57-.291-1.317-.291-2.811-.291h-2.133c-1.493 0-2.24 0-2.811.291-.502.256-.91.664-1.165 1.165-.291.57-.291 1.317-.291 2.811V8m2.667 7.333V22m5.334-6.667V22M4 8h24m-2.667 0v14.933c0 2.24 0 3.36-.436 4.216a3.996 3.996 0 0 1-1.748 1.748c-.856.436-1.976.436-4.216.436h-5.867c-2.24 0-3.36 0-4.216-.436a3.991 3.991 0 0 1-1.748-1.748c-.436-.856-.436-1.976-.436-4.216V8"/>
    </symbol>
    <symbol id="icon-star" viewBox="0 0 34 32">
<path fill="#EEA10C" d="M14.89 2.282c0.737-2.268 3.945-2.268 4.682 0l2.080 6.402c0.33 1.014 1.275 1.701 2.341 1.701h6.731c2.384 0 3.376 3.051 1.447 4.453l-5.446 3.957c-0.863 0.627-1.224 1.738-0.894 2.752l2.080 6.402c0.737 2.268-1.859 4.154-3.788 2.752l-5.446-3.957c-0.863-0.627-2.031-0.627-2.894 0l-5.446 3.957c-1.929 1.402-4.525-0.484-3.788-2.752l2.080-6.402c0.33-1.014-0.031-2.125-0.894-2.752l-5.446-3.957c-1.929-1.402-0.938-4.453 1.447-4.453h6.731c1.066 0 2.012-0.687 2.341-1.701l2.080-6.402z"></path>
</symbol>
  </defs>
</svg>